<svg width="40" height="41" viewBox="0 0 40 41" fill="none" xmlns="http://www.w3.org/2000/svg">
<path d="M30.6637 7.90189L30.9695 7.51765L30.5908 7.20501C27.6754 4.79787 23.9728 3.35998 19.9219 3.35998C18.5027 3.35998 17.1268 3.55879 15.824 3.8845L15.0969 4.06629L15.544 4.66785C16.9346 6.53872 18.9323 9.36428 21.3247 13.7896L21.5313 14.1718L21.9386 14.0205C26.4659 12.3395 29.1788 9.76804 30.6637 7.90189ZM13.3634 5.14412L13.1184 4.82133L12.7519 4.99422C8.25572 7.11505 4.84936 11.1659 3.5047 16.1128L3.33862 16.7238L3.97147 16.7437C6.44736 16.8217 12.3656 16.705 18.9232 14.9482L19.5417 14.7825L19.231 14.2226C16.6876 9.63894 14.5486 6.7054 13.3634 5.14412ZM32.8172 9.4031L32.4295 8.94246L32.0479 9.40819C30.3919 11.4294 27.5166 14.0547 22.9643 15.8361L22.458 16.0342L22.6977 16.5221C23.6792 18.5203 24.6314 20.6496 25.499 22.949L25.6419 23.3279L26.0423 23.2668C29.3355 22.7639 32.3797 22.7639 34.6791 22.944C35.2382 22.9904 35.599 23.0425 36.0188 23.1031C36.1073 23.1159 36.1984 23.1291 36.2945 23.1426L36.8065 23.2149L36.8615 22.7007C36.9289 22.0701 36.9677 21.4368 36.9677 20.7822C36.9677 16.4287 35.3904 12.4602 32.8172 9.4031ZM20.6702 17.0304L20.4851 16.6592L20.0861 16.7726C12.3729 18.9639 5.57815 18.897 3.4621 18.8116L2.98027 18.7921L2.9434 19.2729L2.94082 19.3066C2.90425 19.7831 2.86672 20.2721 2.86672 20.7918C2.86672 26.0256 5.13109 30.6976 8.70204 33.8945L9.07483 34.2283L9.40831 33.8552C10.3034 32.8539 11.504 31.5786 12.9637 30.2474L12.9656 30.2456C15.7119 27.7139 19.2453 25.0351 23.0943 23.8663L23.6112 23.7093L23.4148 23.2061C22.5533 20.9984 21.6257 18.9462 20.6702 17.0304ZM30.1597 24.9266L30.1544 24.9268C29.1432 24.9756 28.0669 25.0731 26.9724 25.2191L26.3776 25.2984L26.563 25.8692C27.4867 28.713 28.2508 31.7255 28.7444 34.8593L28.8687 35.6482L29.5241 35.1919C32.7101 32.9733 35.1202 29.6763 36.2429 25.8059L36.4081 25.2363L35.8187 25.1698C34.3587 25.0049 32.5074 24.8387 30.1597 24.9266ZM24.5037 26.1119L24.3501 25.6585L23.8905 25.7922C20.5091 26.7761 16.9723 29.3273 14.2919 31.7876C12.9966 32.9662 11.9506 34.085 11.1111 35.0015L10.6984 35.452L11.2217 35.7674C13.7672 37.3018 16.7231 38.2045 19.9125 38.2045C22.3062 38.2045 24.5639 37.6988 26.6258 36.8078L26.9738 36.6573L26.9229 36.2816C26.4386 32.7078 25.5844 29.3017 24.5037 26.1119ZM0.867798 20.7822C0.867798 10.029 9.43504 1.2832 19.9219 1.2832C30.4088 1.2832 38.9761 10.029 38.9761 20.7822C38.9761 31.5354 30.4088 40.2812 19.9219 40.2812C9.43504 40.2812 0.867798 31.5354 0.867798 20.7822Z" fill="#070707" stroke="#070707"/>
</svg>
